<?xml version="1.0" encoding="UTF-8" standalone="no"?>
<!-- Generator: Adobe Illustrator 24.1.2, SVG Export Plug-In . SVG Version: 6.00 Build 0)  -->

<svg
   version="1.1"
   id="Layer_1"
   x="0px"
   y="0px"
   viewBox="0 0 2000 2000"
   style="enable-background:new 0 0 2000 2000;"
   xml:space="preserve"
   sodipodi:docname="WS NEWS.svg"
   inkscape:version="1.3.2 (091e20e, 2023-11-25)"
   xmlns:inkscape="http://www.inkscape.org/namespaces/inkscape"
   xmlns:sodipodi="http://sodipodi.sourceforge.net/DTD/sodipodi-0.dtd"
   xmlns="http://www.w3.org/2000/svg"
   xmlns:svg="http://www.w3.org/2000/svg"><defs
   id="defs28" /><sodipodi:namedview
   id="namedview28"
   pagecolor="#ffffff"
   bordercolor="#000000"
   borderopacity="0.25"
   inkscape:showpageshadow="2"
   inkscape:pageopacity="0.0"
   inkscape:pagecheckerboard="0"
   inkscape:deskcolor="#d1d1d1"
   inkscape:zoom="0.6675088"
   inkscape:cx="857.66659"
   inkscape:cy="848.67795"
   inkscape:window-width="1760"
   inkscape:window-height="1174"
   inkscape:window-x="0"
   inkscape:window-y="25"
   inkscape:window-maximized="0"
   inkscape:current-layer="Layer_1" />
<style
   type="text/css"
   id="style1">
	.st0{fill-rule:evenodd;clip-rule:evenodd;}
	.st1{fill-rule:evenodd;clip-rule:evenodd;fill:#FFFFFF;}
	.st2{fill-rule:evenodd;clip-rule:evenodd;fill:#FFC000;}
	.st3{fill:#FFC000;}
	.st4{enable-background:new    ;}
	.st5{fill:#C30000;stroke:#C30000;stroke-width:9;stroke-linecap:round;stroke-linejoin:round;stroke-miterlimit:10;}
	.st6{font-family:'OpenSans';}
	.st7{font-size:144px;}
	.st8{fill:#C30000;}
	.st9{fill-rule:evenodd;clip-rule:evenodd;fill:#000300;}
	.st10{fill-rule:evenodd;clip-rule:evenodd;fill:#02AFF4;}
	.st11{fill:#FFFFFF;}
</style>
<circle
   class="st0"
   cx="1000"
   cy="1000"
   r="651.5"
   id="circle1" />
<circle
   class="st1"
   cx="1000"
   cy="1009.8"
   r="243.1"
   id="circle2" />
<g
   id="g10">
	<g
   id="g3">
		<polygon
   class="st2"
   points="1109.5,944.5 1083,916.7 1056.5,888.9 1097.9,875.9 1139.3,863 1124.4,903.7   "
   id="polygon2" />
		<polygon
   class="st0"
   points="1083,916.7 1109.5,944.5 1124.4,903.7 1139.3,863   "
   id="polygon3" />
	</g>
	<g
   id="g5">
		<polygon
   class="st2"
   points="891.3,944.5 917.8,916.7 944.3,888.9 902.9,875.9 861.5,863 876.4,903.7   "
   id="polygon4" />
		<polygon
   class="st0"
   points="917.8,916.7 891.3,944.5 876.4,903.7 861.5,863   "
   id="polygon5" />
	</g>
	<g
   id="g7">
		<polygon
   class="st2"
   points="891.3,1053 917.8,1080.8 944.3,1108.6 902.9,1121.5 861.5,1134.5 876.4,1093.7   "
   id="polygon6" />
		<polygon
   class="st0"
   points="917.8,1080.8 891.3,1053 876.4,1093.7 861.5,1134.5   "
   id="polygon7" />
	</g>
	<g
   id="g9">
		<polygon
   class="st2"
   points="1109.5,1053 1083,1080.8 1056.5,1108.6 1097.9,1121.5 1139.3,1134.5 1124.4,1093.7   "
   id="polygon8" />
		<polygon
   class="st0"
   points="1083,1080.8 1109.5,1053 1124.4,1093.7 1139.3,1134.5   "
   id="polygon9" />
	</g>
</g>
<path
   class="st3"
   d="M1273.7,1022.4c1.4-16.3,1.3-32.7-0.4-49l0.3,0.1l-1.1-7c-1.6-12.8-4.1-25.5-7.5-38.1c-0.4-1.6-0.8-3.1-1.3-4.7  c-0.1-0.4-0.2-0.8-0.3-1.1c-0.2-0.7-0.4-1.3-0.6-2c-5-16.7-11.6-32.8-19.6-48.2c-0.3-0.6-0.6-1.2-1-1.8c-1.2-2.3-2.4-4.5-3.7-6.7  c-0.9-1.6-1.8-3.1-2.8-4.7c-0.7-1.2-1.4-2.4-2.2-3.6c-1.6-2.6-3.2-5.1-4.9-7.6c-0.1-0.1-0.2-0.3-0.3-0.4  c-15.9-23.9-35.5-45.1-58.4-63.1c-0.4-0.3-0.8-0.6-1.2-0.9c-0.8-0.6-1.6-1.3-2.4-1.9l-13.1-10l-0.2,0.5c-13.9-9.4-28.6-17.4-44-24.1  l0.2-0.3l-8.3-3.1c-9.7-3.8-19.7-7.1-29.9-9.9c-0.3-0.1-0.7-0.2-1-0.3c-3-0.8-5.9-1.5-8.9-2.2c-2.5-0.6-5-1.1-7.5-1.6  c-0.8-0.2-1.5-0.3-2.3-0.5c-5.4-1-10.8-1.9-16.3-2.7l-10.2-1.5l0.1,0.4c-8.2-0.8-16.5-1.1-24.9-1.1v5.9c0,0,0,0,0,0l0-5.9  c-8.4,0-16.8,0.4-25.2,1.2l0.1-0.5l-13.3,2c-0.8,0.1-1.5,0.2-2.3,0.3l-0.8,0.1c-0.3,0-0.6,0.1-0.8,0.1c-2.9,0.5-5.8,0.9-8.7,1.5  c-1.3,0.2-2.6,0.5-3.8,0.8c-1.8,0.4-3.7,0.8-5.5,1.2c-2.1,0.5-4.1,0.9-6.1,1.4c-0.9,0.2-1.8,0.4-2.7,0.7c-9.7,2.5-19.3,5.5-28.6,9.1  c-0.2,0.1-0.4,0.1-0.6,0.2c-3,1.1-5.9,2.3-8.9,3.6c-0.8,0.3-1.6,0.7-2.4,1c-2.3,1-4.5,2-6.7,3c-1.7,0.8-3.3,1.6-4.9,2.4  c-1.3,0.6-2.6,1.3-3.9,1.9c-2.7,1.4-5.3,2.8-8,4.2c-0.2,0.1-0.4,0.2-0.7,0.4c-30.7,17-57.8,39.8-80.1,67.6c-0.9,1.1-1.9,2.3-2.8,3.5  c-0.1,0.2-0.3,0.3-0.4,0.5l-10.2,13.2l0.5,0.2c-9.7,14.1-18,29.1-24.9,44.8l-0.4-0.3l-4.5,12c-1.7,4.5-3.4,9.1-4.9,13.7  c-5.4,16.4-9.1,33.1-11.3,50l-1.2,7.5l0.4-0.1c-1.7,16.9-1.8,34-0.3,51.1l-0.4-0.1l1.4,9.5c0.7,5.4,1.6,10.8,2.6,16.2  c0.2,1,0.4,2,0.6,3c0.4,1.9,0.8,3.9,1.2,5.8c0.5,2.4,1,4.7,1.6,7c0.2,0.7,0.3,1.4,0.5,2c3.5,13.9,8.1,27.5,13.7,40.6  c0.1,0.1,0.1,0.3,0.2,0.4c1.2,2.8,2.5,5.7,3.8,8.5c0.4,0.9,0.9,1.9,1.4,2.8c0.9,1.9,1.9,3.8,2.8,5.7c1,1.9,2,3.9,3.1,5.8  c0.5,0.8,0.9,1.7,1.4,2.5c17.3,31.1,40.4,58.4,68.7,80.8c1,0.8,2.1,1.6,3.1,2.4c0.5,0.4,1.1,0.9,1.6,1.3l13.2,10l0.1-0.5  c13.9,9.4,28.6,17.4,44,24.1l-0.2,0.3l7.7,2.8c9.9,4,20.1,7.3,30.5,10.1c0.1,0,0.1,0,0.2,0c3.2,0.9,6.5,1.7,9.8,2.4  c2.2,0.5,4.4,0.9,6.6,1.4c1.2,0.2,2.3,0.5,3.5,0.7c3.1,0.6,6.2,1.1,9.4,1.6c0.2,0,0.3,0.1,0.5,0.1l1.8,0.3c1.2,0.2,2.5,0.4,3.7,0.6  l10.8,1.6l-0.1-0.4c8.2,0.7,16.4,1.1,24.7,1.1c8.5,0,16.9-0.4,25.3-1.2l-0.1,0.6l16.3-2.5c56.3-8.5,107.6-33.9,148.8-73.5  c0.3-0.3,0.6-0.6,0.9-0.9c1-1,2.1-1.9,3.1-3c1.1-1.1,2.1-2.2,3.1-3.2c0.8-0.8,1.6-1.7,2.4-2.5c1.4-1.5,2.8-3,4.1-4.5  c1.5-1.6,2.9-3.2,4.3-4.9c0.7-0.8,1.4-1.6,2-2.4c1.9-2.3,3.9-4.7,5.7-7c0.2-0.2,0.4-0.5,0.5-0.7c1.1-1.5,2.3-2.9,3.4-4.4l9.8-13.1  l-0.6-0.2c9.1-13.8,16.8-28.3,23.3-43.4l0.5,0.4l5.6-15.6c7.8-21.5,12.7-43.6,14.9-66l0.6-3.9L1273.7,1022.4z M1202.6,1043  c-8.2,39-27.6,74.7-56.1,103.3c-11.4,11.3-23.9,21.2-37.4,29.6c-15.7,9.7-32.8,17.4-50.8,22.7c0,0,0,0,0,0  c-19,5.5-38.6,8.3-58.3,8.3c-16.6,0-33.1-2-49.2-6c-0.4-0.1-0.8-0.2-1.2-0.3c-2.2-0.6-4.5-1.2-6.7-1.8l-3.8-1.1  c-32.1-9.8-61.4-27.4-85.6-51.5c-28.2-28.3-47.5-63.6-55.9-102.3l-1.4-6.4c-4.9-26.2-4.6-53,0.7-79.1l1.5-6.3  c8.8-37.4,27.8-71.6,55.2-98.9c27.9-27.8,62.9-47.1,101.1-55.7l2.6-0.6c14.1-3,28.5-4.5,42.9-4.5c14,0,28,1.4,41.7,4.2l3.7,0.8  c38.2,8.6,73.2,27.8,101.2,55.7c27.5,27.5,46.6,62,55.3,99.8l1.1,4.9c5.3,25.8,5.7,52.2,1,78L1202.6,1043z"
   id="path10" />
<path
   class="st3"
   d="M1000,1677.4c-91.4,0-180.2-17.9-263.7-53.3c-80.7-34.1-153.1-83-215.3-145.2s-111-134.7-145.2-215.3  c-35.3-83.5-53.3-172.3-53.3-263.7s17.9-180.2,53.3-263.7c34.1-80.7,83-153.1,145.2-215.3s134.7-111,215.3-145.2  c83.5-35.3,172.3-53.3,263.7-53.3s180.2,17.9,263.7,53.3c80.7,34.1,153.1,83,215.3,145.2c62.2,62.2,111,134.6,145.2,215.3  c35.3,83.5,53.3,172.3,53.3,263.7s-17.9,180.2-53.3,263.7c-34.1,80.7-83,153.1-145.2,215.3c-62.2,62.2-134.7,111-215.3,145.2  C1180.2,1659.5,1091.4,1677.4,1000,1677.4z M1000,374.5c-344.9,0-625.5,280.6-625.5,625.5s280.6,625.5,625.5,625.5  s625.5-280.6,625.5-625.5S1344.9,374.5,1000,374.5z"
   id="path11"
   style="fill:#ffc000;fill-opacity:1;stroke:#000000;stroke-opacity:1;stroke-width:3;stroke-dasharray:none" />
<text
   transform="matrix(1 0 0 1 955.9665 524.9698)"
   class="st4"
   id="text12"><tspan
     x="0"
     y="0"
     class="st5 st6 st7"
     id="tspan11">E</tspan><tspan
     x="80.1"
     y="0"
     class="st8 st6 st7"
     id="tspan12">.</tspan></text>
<text
   transform="matrix(1 0 0 1 920.67 1586.8408)"
   class="st4"
   id="text14"><tspan
     x="0"
     y="0"
     class="st5 st6 st7"
     id="tspan13">W</tspan><tspan
     x="133.3"
     y="0"
     class="st8 st6 st7"
     id="tspan14">.</tspan></text>
<text
   transform="matrix(1 0 0 1 403.8347 1056.52)"
   class="st4"
   id="text16"><tspan
     x="0"
     y="0"
     class="st5 st6 st7"
     id="tspan15">N</tspan><tspan
     x="108.6"
     y="0"
     class="st8 st6 st7"
     id="tspan16">.</tspan></text>
<text
   transform="matrix(1 0 0 1 1471.4314 1056.52)"
   class="st4"
   id="text18"><tspan
     x="0"
     y="0"
     class="st5 st6 st7"
     id="tspan17">S</tspan><tspan
     x="79"
     y="0"
     class="st8 st6 st7"
     id="tspan18">.</tspan></text>
<g
   id="g26">
	<polygon
   class="st2"
   points="1000,561 1068,932.1 1439.2,1000.2 1068,1068.2 1000,1439.4 931.9,1068.2 560.8,1000.2 931.9,932.1     "
   id="polygon18" />
	<polygon
   class="st2"
   points="1000,561 1000,1000.2 934.7,934.8  "
   id="polygon19" />
	<polygon
   class="st0"
   points="1000,561 1000,1000.2 1065.3,934.8  "
   id="polygon20" />
	<polygon
   class="st0"
   points="560.8,1000.2 1000,1000.2 934.7,934.8  "
   id="polygon21" />
	<polygon
   class="st2"
   points="560.8,1000.2 1000,1000.2 934.7,1065.5  "
   id="polygon22" />
	<polygon
   class="st2"
   points="1439.2,1000.2 1000,1000.2 1065.3,934.8  "
   id="polygon23" />
	<polygon
   class="st0"
   points="1439.2,1000.2 1000,1000.2 1065.3,1065.5  "
   id="polygon24" />
	<polygon
   class="st0"
   points="1000,1439.4 1000,1000.2 934.7,1065.5  "
   id="polygon25" />
	<polygon
   class="st2"
   points="1000,1439.4 1000,1000.2 1065.3,1065.5  "
   id="polygon26" />
</g>
<g
   id="g28">
	
		<ellipse
   transform="matrix(0.7071 -0.7071 0.7071 0.7071 -413.2291 999.5573)"
   class="st9"
   cx="1000"
   cy="998.6"
   rx="125.6"
   ry="125.6"
   id="ellipse26" />
	<ellipse
   class="st10"
   cx="999.9"
   cy="998.6"
   rx="111"
   ry="111"
   id="ellipse27" />
	<path
   class="st11"
   d="M944.1,1040l-14.1-59.6h-0.5c0.1,1.6,0.3,3.6,0.4,6.3c0.1,2.6,0.3,5.5,0.4,8.6c0.1,3.1,0.2,6,0.2,8.8v35.9   h-16.5v-82.8h24.8l14.4,58.7h0.4l14.1-58.7h24.9v82.8h-17.1v-36.3c0-2.6,0-5.4,0.1-8.4c0.1-3,0.2-5.8,0.3-8.5   c0.1-2.6,0.2-4.7,0.3-6.3h-0.5l-14,59.5L944.1,1040L944.1,1040z"
   id="path27" />
	<path
   class="st11"
   d="M1037.4,1040l-14.1-59.6h-0.5c0.1,1.6,0.3,3.6,0.4,6.3c0.2,2.6,0.3,5.5,0.4,8.6c0.1,3,0.2,6,0.2,8.8v35.9   h-16.5v-82.8h24.8l14.4,58.7h0.4l14.1-58.7h24.9v82.8h-17.1v-36.3c0-2.6,0-5.4,0.1-8.4s0.2-5.8,0.3-8.5c0.1-2.6,0.2-4.7,0.3-6.3   h-0.5l-14,59.5L1037.4,1040L1037.4,1040z"
   id="path28" />
</g>
</svg>
